<?xml version="1.0" encoding="UTF-8" standalone="no"?>
<svg
   height="37.999901"
   viewBox="0 -960 759.99802 759.99802"
   width="37.999901"
   version="1.1"
   id="svg1"
   sodipodi:docname="globe.svg"
   inkscape:version="1.3.1 (9b9bdc1480, 2023-11-25, custom)"
   xmlns:inkscape="http://www.inkscape.org/namespaces/inkscape"
   xmlns:sodipodi="http://sodipodi.sourceforge.net/DTD/sodipodi-0.dtd"
   xmlns="http://www.w3.org/2000/svg"
   xmlns:svg="http://www.w3.org/2000/svg">
  <defs
     id="defs1" />
  <sodipodi:namedview
     id="namedview1"
     pagecolor="#ffffff"
     bordercolor="#000000"
     borderopacity="0.25"
     inkscape:showpageshadow="2"
     inkscape:pageopacity="0.0"
     inkscape:pagecheckerboard="0"
     inkscape:deskcolor="#d1d1d1"
     inkscape:zoom="17"
     inkscape:cx="19"
     inkscape:cy="19"
     inkscape:window-width="1850"
     inkscape:window-height="1016"
     inkscape:window-x="0"
     inkscape:window-y="0"
     inkscape:window-maximized="1"
     inkscape:current-layer="svg1" />
  <path
     d="m 315.539,-251.386 q -28.692,-40.384 -49.154,-86.923 -20.462,-46.539 -33.001,-102.077 H 73.538 q 36.538,77.308 97.923,125 61.385,47.693 144.078,64 z M 58.923,-485.77 h 166.154 q -3.769,-25.154 -5.154,-46.769 -1.385,-21.616 -1.385,-45.847 0,-21.769 1.077,-44.808 1.077,-23.038 4.847,-50.423 H 58.923 q -7.385,23.616 -10.462,46.231 -3.077,22.616 -3.077,49 0,26 3.077,47.693 3.077,21.692 10.462,44.923 z M 73.538,-719 h 159.231 q 12.385,-56.154 34.039,-104.578 21.654,-48.423 49.731,-85.654 Q 228.077,-886.386 170,-841.463 111.922,-796.539 73.538,-719 Z m 206.23,0 h 201.077 q -15.384,-63.231 -39.461,-110.308 -24.077,-47.077 -61.385,-87.308 -36.923,39.693 -61,87.5 -24.077,47.808 -39.231,110.116 z m 248.076,0 H 686.46 q -36.538,-73.078 -100,-122.347 -63.462,-49.27 -142.001,-67.269 26.154,36.846 47.308,85.077 21.154,48.231 36.077,104.539 z m -147.845,518.998 q -79.384,0 -148.73,-29.154 -69.346,-29.154 -120.846,-80.461 -51.5,-51.308 -80.961,-120.346 Q 0,-499.001 0,-578.386 q 0,-79.769 29.462,-149.422 29.461,-69.654 80.961,-120.961 51.5,-51.308 120.846,-81.269 69.346,-29.962 148.73,-29.962 79.384,0 148.73,29.962 69.346,29.961 120.846,81.269 51.5,51.307 80.961,120.961 29.462,69.653 29.462,149.422 0,15.462 -1,31.308 -1,15.846 -3.616,31.307 h -46.999 q 3.231,-15.461 4.731,-30.192 1.5,-14.731 1.5,-32.423 0,-26.384 -3.077,-49 -3.077,-22.615 -10.462,-46.231 H 534.921 q 3.769,29.616 5.462,51.231 1.692,21.616 1.692,44 0,13.231 -0.5,26.962 -0.5,13.73 -2.115,35.653 h -46.384 q 2,-18.692 2.808,-32.923 0.808,-14.23 0.808,-29.692 0,-22.538 -1.385,-43.769 -1.385,-21.231 -5.769,-51.462 H 271.076 q -4.385,30.231 -5.77,51.462 -1.384,21.231 -1.384,43.769 0,21.539 1.384,41.962 1.385,20.423 5.77,50.654 h 173.153 v 45.384 H 279.768 q 19.615,72.692 42.962,118.615 23.346,45.923 57.269,77.154 19.077,-20.077 35.038,-43.999 15.962,-23.923 29.192,-49.846 v 133.229 q -15.846,2.615 -31.807,3.923 -15.962,1.308 -32.423,1.308 z m 318,-29.384 -135.308,-135.309 v 113.386 h -45.384 v -191.384 h 191.384 v 45.384 H 594.305 l 135.309,135.308 z"
     id="path1"
     style="fill:#ffffff;fill-opacity:1" />
</svg>
