<?xml version="1.0" encoding="UTF-8" standalone="no"?>
<!-- Created with Inkscape (http://www.inkscape.org/) -->

<svg
   width="138.34325"
   height="30.908234"
   viewBox="0 0 36.604758 8.1781254"
   version="1.1"
   id="svg1"
   inkscape:version="1.3.2 (091e20ef0f, 2023-11-25)"
   sodipodi:docname="logo.svg"
   inkscape:export-filename="favicon.ico"
   inkscape:export-xdpi="96"
   inkscape:export-ydpi="96"
   xmlns:inkscape="http://www.inkscape.org/namespaces/inkscape"
   xmlns:sodipodi="http://sodipodi.sourceforge.net/DTD/sodipodi-0.dtd"
   xmlns="http://www.w3.org/2000/svg"
   xmlns:svg="http://www.w3.org/2000/svg">
  <sodipodi:namedview
     id="namedview1"
     pagecolor="#505050"
     bordercolor="#ffffff"
     borderopacity="1"
     inkscape:showpageshadow="0"
     inkscape:pageopacity="0"
     inkscape:pagecheckerboard="1"
     inkscape:deskcolor="#505050"
     inkscape:document-units="mm"
     inkscape:zoom="5.6530757"
     inkscape:cx="55.721879"
     inkscape:cy="13.797799"
     inkscape:window-width="1920"
     inkscape:window-height="1007"
     inkscape:window-x="0"
     inkscape:window-y="0"
     inkscape:window-maximized="1"
     inkscape:current-layer="layer1"
     inkscape:export-bgcolor="#ffffff00"
     showguides="true" />
  <defs
     id="defs1" />
  <g
     inkscape:label="Layer 1"
     inkscape:groupmode="layer"
     id="layer1"
     transform="translate(-0.01607927,-0.14418291)">
    <path
       id="path2"
       style="stroke-width:0.256144"
       d="M 4.2335,0.14418292 A 4.0889751,4.0889751 0 0 0 0.14418292,4.2335 4.0889751,4.0889751 0 0 0 4.2335,8.3223003 4.0889751,4.0889751 0 0 0 8.3223003,4.2335 4.0889751,4.0889751 0 0 0 4.2335,0.14418292 Z m 0,1.33847228 A 2.7508476,2.7508476 0 0 1 6.9843448,4.2335 2.7508476,2.7508476 0 0 1 4.2335,6.9843448 2.7508476,2.7508476 0 0 1 1.4826552,4.2335 2.7508476,2.7508476 0 0 1 4.2335,1.4826552 Z" />
    <path
       id="path2-5"
       style="fill:none;stroke:#000000;stroke-width:0.256548;stroke-linecap:round;stroke-miterlimit:3.5;stroke-dasharray:0.256548, 2.30893;stroke-opacity:1"
       d="M 8.3223138,4.2333331 A 4.0889751,4.0889751 0 0 1 4.2333386,8.3223083 4.0889751,4.0889751 0 0 1 0.14436353,4.2333331 4.0889751,4.0889751 0 0 1 4.2333386,0.14435797 4.0889751,4.0889751 0 0 1 8.3223138,4.2333331 Z" />
    <path
       id="path11"
       style="fill:#d9d9d9;stroke-width:0.256547;stroke-linecap:round;stroke-miterlimit:3.5"
       d="m 4.2333333,1.2314494 a 3.0019736,3.0019736 0 0 0 -3.0018839,3.0018839 3.0019736,3.0019736 0 0 0 3.0018839,3.001884 3.0019736,3.0019736 0 0 0 3.001884,-3.001884 3.0019736,3.0019736 0 0 0 -3.001884,-3.0018839 z m 0.00775,0.4123779 A 2.589842,2.589842 0 0 1 6.8150879,3.9532471 H 4.402832 L 3.1879191,1.8691366 A 2.589842,2.589842 0 0 1 4.2410848,1.6438273 Z M 2.7135295,2.1497396 3.9175903,4.2333333 2.7124959,6.3158936 A 2.589842,2.589842 0 0 1 1.651062,4.2333333 2.589842,2.589842 0 0 1 2.7135295,2.1497396 Z M 6.8156047,4.5098022 A 2.589842,2.589842 0 0 1 4.2410848,6.8228394 2.589842,2.589842 0 0 1 3.1972209,6.6011475 L 4.402832,4.5134196 Z" />
    <path
       id="path12"
       style="fill:#d9d9d9;stroke-width:0.438102;stroke-linecap:round;stroke-miterlimit:3.5"
       d="M 5.5207785,4.2335 A 1.2872785,1.2872785 0 0 1 4.2335,5.5207785 1.2872785,1.2872785 0 0 1 2.9462215,4.2335 1.2872785,1.2872785 0 0 1 4.2335,2.9462215 1.2872785,1.2872785 0 0 1 5.5207785,4.2335 Z" />
    <path
       style="font-size:5.8898px;font-family:Comfortaa;-inkscape-font-specification:Comfortaa;text-align:center;text-anchor:middle;fill:#ffffff;stroke-width:0.0253414;stroke-linecap:round;stroke-miterlimit:3.5"
       d="m 11.553832,5.8767542 c 0.365168,0 0.812793,-0.1590246 1.071944,-0.382837 0.09424,-0.082457 0.08835,-0.206143 -0.01178,-0.29449 -0.08246,-0.064788 -0.200253,-0.058898 -0.2886,0.01178 -0.170804,0.147245 -0.488853,0.2591512 -0.771564,0.2591512 -0.653767,0 -1.136731,-0.441735 -1.201519,-1.0837232 h 2.379479 c 0.123686,0 0.212033,-0.082457 0.212033,-0.206143 0,-0.9246986 -0.58898,-1.5843562 -1.47834,-1.5843562 -0.907029,0 -1.5431271,0.6832168 -1.5431271,1.6432542 0,0.9600374 0.6773271,1.6373644 1.6314741,1.637364 z m -0.08835,-2.8742224 c 0.59487,0 0.995377,0.412286 1.054275,1.0071558 H 10.36409 c 0.08246,-0.5948698 0.500633,-1.0071558 1.101392,-1.0071558 z m 2.161559,1.4606704 h 1.384103 c 0.129576,0 0.229702,-0.094237 0.229702,-0.2238124 0,-0.1354654 -0.100126,-0.2297022 -0.229702,-0.2297022 h -1.3841 c -0.129576,0 -0.223812,0.094237 -0.223812,0.2297022 0,0.1295756 0.09424,0.2238124 0.223812,0.2238124 z m 2.615075,1.384103 c 0.135466,0 0.223813,-0.088347 0.223813,-0.2238124 V 3.880112 c 0,-0.5065228 0.347498,-0.8599108 0.836351,-0.8599108 0.459405,0 0.777454,0.3474982 0.777454,0.9070292 v 1.6962624 c 0,0.1354654 0.09424,0.2238124 0.229702,0.2238124 0.135466,0 0.223813,-0.088347 0.223813,-0.2238124 v -1.708042 c -0.0059,-0.5418616 0.335718,-0.8952496 0.824572,-0.8952496 0.459404,0 0.777453,0.3474982 0.777453,0.9070292 v 1.6962624 c 0,0.1354654 0.09424,0.2238124 0.229702,0.2238124 0.135466,0 0.223813,-0.088347 0.223813,-0.2238124 V 3.9272304 c 0,-0.8127924 -0.488854,-1.3369846 -1.18385,-1.3369846 -0.459404,0 -0.836352,0.206143 -1.060164,0.5536412 -0.206143,-0.3474982 -0.559531,-0.5536412 -0.995376,-0.5536412 -0.359278,0 -0.665548,0.147245 -0.88347,0.3946166 V 2.8552868 c 0,-0.1354654 -0.08835,-0.2297022 -0.223813,-0.2297022 -0.135465,0 -0.229702,0.094237 -0.229702,0.2297022 v 2.768206 c 0,0.1354654 0.09424,0.2238124 0.229702,0.2238124 z m 6.814503,0.029449 c 0.942368,0 1.637364,-0.6949964 1.637364,-1.6373644 -0.0059,-0.9482578 -0.694993,-1.6432542 -1.637361,-1.6432542 -0.948258,0 -1.637365,0.6949964 -1.637365,1.6432542 0,0.942368 0.689107,1.6373644 1.637365,1.6373644 z m 0,-0.412286 c -0.683217,0 -1.19563,-0.5183024 -1.19563,-1.2250784 0,-0.7126658 0.512413,-1.2309682 1.19563,-1.2309682 0.689106,0 1.189739,0.5183024 1.189739,1.2309682 0,0.706776 -0.500633,1.2250784 -1.189739,1.2250784 z m 3.781251,0.382837 h 0.123686 c 0.141355,0 0.247372,-0.094237 0.247372,-0.2238124 0,-0.1354654 -0.08835,-0.2297022 -0.212033,-0.2297022 H 26.83787 c -0.365167,0 -0.630209,-0.2827104 -0.630209,-0.6832168 V 2.9848624 h 0.665548 c 0.123686,0 0.206143,-0.082457 0.206143,-0.1943634 0,-0.117796 -0.08246,-0.2002532 -0.206143,-0.2002532 h -0.665545 c -1.825324,0 1.37467,0 -0.453514,0 h -0.382837 c -0.123686,0 -0.206143,0.082457 -0.206143,0.2002532 0,0.1119062 0.08246,0.1943634 0.206143,0.1943634 h 0.382837 v 1.7257114 c 0,0.6537678 0.453514,1.1308416 1.083723,1.1367314 z m 1.431236,0 c 0.129576,0 0.223813,-0.094237 0.223813,-0.2297022 V 2.8552868 c 0,-0.1354654 -0.09424,-0.2297022 -0.223813,-0.2297022 -0.135465,0 -0.229702,0.094237 -0.229702,0.2297022 V 5.617603 c 0,0.1354654 0.09424,0.2297022 0.229702,0.2297022 z m 2.84477,0.029449 c 0.942368,0 1.637364,-0.6949964 1.637364,-1.6373644 -0.0059,-0.9482578 -0.695004,-1.6432542 -1.637372,-1.6432542 -0.948258,0 -1.637364,0.6949964 -1.637364,1.6432542 0,0.942368 0.689106,1.6373644 1.637364,1.6373644 z m 0,-0.412286 c -0.683217,0 -1.195629,-0.5183024 -1.195629,-1.2250784 0,-0.7126658 0.512412,-1.2309682 1.195629,-1.2309682 0.689107,0 1.18974,0.5183024 1.18974,1.2309682 0,0.706776 -0.500633,1.2250784 -1.18974,1.2250784 z m 2.750536,0.382837 c 0.135466,0 0.223813,-0.088347 0.223813,-0.2238124 V 3.880112 c 0,-0.4888534 0.441735,-0.8599108 1.024825,-0.8599108 0.60076,0 1.054274,0.3474982 1.054274,1.0719436 v 1.531348 c 0,0.1295756 0.100127,0.2238124 0.229702,0.2238124 0.123686,0 0.223813,-0.094237 0.223813,-0.2238124 v -1.531348 c 0,-0.971817 -0.630209,-1.501899 -1.460671,-1.501899 -0.435845,0 -0.818682,0.176694 -1.071943,0.4652942 V 2.8552868 c 0,-0.1354654 -0.08835,-0.2297022 -0.223813,-0.2297022 -0.135465,0 -0.229702,0.094237 -0.229702,0.2297022 v 2.768206 c 0,0.1354654 0.09424,0.2238124 0.229702,0.2238124 z"
       id="text1"
       aria-label="e-motion"
       sodipodi:nodetypes="scccscssssssccscsssssccsssssssscssssssscscsssssscssssssssscssssscsssssssscsscsssssssscssssssssssssssssssscsssss" />
  </g>
</svg>
